<?xml version="1.0" encoding="UTF-8" standalone="no"?>
<!-- Created with Inkscape (http://www.inkscape.org/) -->

<svg
   version="1.1"
   id="svg1"
   width="2603.0132"
   height="3300.96"
   viewBox="0 0 2603.0132 3300.96"
   sodipodi:docname="vecteezy_owl-birds-illustration-eps-10_.eps"
   xmlns:inkscape="http://www.inkscape.org/namespaces/inkscape"
   xmlns:sodipodi="http://sodipodi.sourceforge.net/DTD/sodipodi-0.dtd"
   xmlns="http://www.w3.org/2000/svg"
   xmlns:svg="http://www.w3.org/2000/svg">
  <defs
     id="defs1" />
  <sodipodi:namedview
     id="namedview1"
     pagecolor="#ffffff"
     bordercolor="#000000"
     borderopacity="0.25"
     inkscape:showpageshadow="2"
     inkscape:pageopacity="0.0"
     inkscape:pagecheckerboard="0"
     inkscape:deskcolor="#d1d1d1">
    <inkscape:page
       x="0"
       y="0"
       inkscape:label="1"
       id="page1"
       width="2603.0132"
       height="3300.96"
       margin="0"
       bleed="0" />
  </sodipodi:namedview>
  <g
     id="g1"
     inkscape:groupmode="layer"
     inkscape:label="1">
    <g
       id="group-R5">
      <path
         id="path2"
         d="m 3289.43,14443.5 c -92.27,-1.1 -174.35,-93.3 -172.47,-193.6 1.78,-94.7 105.94,-203.4 191.15,-199.5 86.41,3.9 173.24,104.2 173.82,200.6 0.61,101.8 -91.45,193.9 -192.5,192.5 z m 12951.67,0.4 c -99.1,0.1 -174.4,-79.9 -175.5,-186.6 -1.1,-114.1 86,-207 193.1,-206 98.2,1 163.4,79.4 163.2,196.2 -0.3,118.1 -72.3,196.3 -180.8,196.4 z M 14242.9,7830.4 c -52.9,524.9 -407.7,831.2 -735.7,1179.4 128.9,-475 437.8,-810.4 735.7,-1179.4 z M 6042.76,9019.7 c -323.32,-330.1 -680.2,-638.9 -741.72,-1177.7 313.95,378.4 596.55,734.4 741.72,1177.7 z m 7239.34,9033.1 c 193.7,1.6 310.9,118.8 307.6,307.8 -3.2,190.2 -134.2,324.1 -317.6,324.9 -181.9,0.7 -309.2,-129.3 -307.1,-313.7 2.2,-193.8 128.2,-320.6 317.1,-319 z m -5753.86,295.1 c 1.16,189.2 -128.86,331.2 -306.62,335 -179.48,3.8 -320.25,-129.9 -320.44,-304.3 -0.22,-199.8 134.16,-344.7 315.74,-340.5 185.81,4.2 310.2,128 311.32,309.8 z m 2690.96,-2840.1 c 49.4,239.4 -99.7,600.9 -286.49,714.6 -51.3,31.2 -105.8,56.1 -168.01,57.4 -250.66,5.1 -556.01,-505.5 -434.47,-744.2 27.57,68.6 51.56,131.3 78.09,193 13.89,32.2 15.86,82 57.54,85.6 46.77,4.1 48.39,-49.2 63.37,-79.6 124.69,-253.3 181.16,-527.5 239.01,-823.7 46.62,214.7 73.82,410.6 137.49,597.8 36.41,107 76.37,290.7 142.37,288.5 108.7,-3.7 109.1,-176.2 171.1,-289.4 z M 14895.9,3571.3 c 8.8,-345.1 257.7,-577.4 612.9,-567.2 354.4,10.3 549.8,292 562.3,555.7 17.1,361.5 -256,623.6 -610.7,617.3 -326.4,-5.8 -573.1,-270.6 -564.5,-605.8 z m -11425.43,15.3 c -4.33,-336.9 241.85,-577.1 597.58,-583.2 311.05,-5.4 571.54,249.1 576.46,563.1 5.43,346.8 -239.37,610.5 -569.2,613.1 -352.85,2.8 -600.3,-239.9 -604.84,-593 z M 16597.4,6282.8 c 94.2,-279.4 153.2,-531.2 322.1,-778.7 -31.4,505.6 -332.6,916.5 -269.9,1400.4 -128.2,-273.7 -209.9,-555.2 -247.8,-847.4 -45.9,-353.4 63.5,-671.7 234.7,-975.1 118.1,-209.3 209.1,-430.3 251.6,-668.4 18,-100.5 30,-202.1 47.2,-320.4 326.4,498.4 468.1,1339.9 279.4,1677.4 -17.1,-377.6 -49.8,-736.3 -196.3,-1080.3 -18.4,16.5 -34.8,23.8 -37.2,34.3 -56.3,250.6 -188.4,468.4 -302.9,693.3 -67.9,133.5 -111.6,274.2 -123.6,420.7 -10.8,133.6 -25.2,272 42.7,444.2 z M 2623.5,5511.7 c 156.67,240.4 231.89,487.8 322.13,729.6 88.74,-249.2 45.9,-487.1 -44.94,-715.4 -112.01,-281.5 -315.8,-522.9 -355.01,-868.4 -192.89,364.5 -193.08,733.1 -252.91,1088.4 -173.47,-599 28.11,-1128.7 295.9,-1647.9 25.51,369.2 134.83,709.5 321.78,1022.1 228.09,381.5 266.15,789.2 182.27,1213.2 -37.19,188.1 -76.39,379.7 -202.4,573 12.19,-304.7 -54.84,-560.7 -142.8,-814.9 -62.08,-179.5 -154.78,-355.2 -124.02,-579.7 z m 5153.84,12487.5 c -108.92,-831.6 -545.06,-1252.6 -1236.36,-1198.1 -351.48,27.7 -627.38,198.8 -809.17,509 -177.32,302.7 -200.01,629.8 -156.17,970.3 -128.17,-194.5 -199.9,-400 -181.38,-635.7 42.13,-536.2 540.56,-1031.3 1079.1,-1098.9 554.42,-69.6 1153.13,254.6 1340.16,779.1 77.95,218.6 67.91,436.9 -36.18,674.3 z m 4001.26,3.5 c -211.8,-354.8 -61.3,-887.9 321.2,-1196.1 488.4,-393.6 1209.5,-358.3 1668.8,81.7 417.8,400.3 497.4,999.5 189.1,1423.4 46.2,-935.6 -294.3,-1455.3 -977.1,-1514.5 -604.9,-52.5 -1200.7,402.1 -1202,1205.5 z m 3902.2,-3217.1 c 51.2,-372.4 -96.1,-648.6 -321.6,-894.4 -72.2,-78.7 -142.8,-159 -167.7,-265.5 -32.4,-138.7 -67,-277.8 -84.7,-418.8 -35.2,-281.6 7.9,-544.6 238.3,-741.1 198,-168.8 445.4,-139.3 605.7,64.3 60.8,77.1 102.8,162.3 129.1,256.8 106.9,383.3 37.8,746.6 -125.2,1098.3 -80.1,172.9 -125.6,354 -153.8,541.4 -17.6,116.8 -36.5,235 -120.1,359 z m -11832.98,-24.1 c -64.42,-81.2 -85.13,-152.3 -91.8,-222.2 -24.34,-255.5 -100.91,-493.1 -203.36,-727.9 -139.59,-319.9 -171.46,-657.7 -103.06,-1001.5 70.72,-355.5 374.89,-549.6 652.98,-408.6 205.07,104 295.92,294 324.95,515.8 26.19,200.3 -26.22,393.5 -48.8,589.9 -16.1,140 -64.71,257.3 -157.58,359.1 -225.32,247 -399.56,516.5 -373.33,895.4 z M 10040.5,7763.9 c 12.3,38.8 24.5,77.6 36.9,116.3 205.5,637.8 505.5,1223.7 938.6,1739.5 263.8,314.2 567.8,591.4 823,913.3 329.6,415.5 569.4,876.6 726.4,1397.1 -20.7,-14.9 -32.9,-20 -39.6,-29.1 -321.2,-438.6 -714.8,-805.7 -1133.9,-1147.4 -317.2,-258.7 -590.7,-557.1 -803.7,-906.5 -388.7,-637.8 -530.7,-1344.8 -547.7,-2083.2 z m -552.58,77 c 33.21,165.3 -0.5,321.1 -20.77,478 -126.12,976.3 -526.74,1801.4 -1312.47,2422.4 -299.72,236.9 -582.04,494 -830.13,788.3 -123.73,146.8 -240.79,299.8 -386.34,474 324.01,-913.3 570.24,-1312.3 1237.27,-1991.8 550.19,-560.6 965.44,-1204.1 1225.39,-1946.5 26.5,-75.7 57.92,-149.7 87.05,-224.4 z M 13921,4931 c 0,41.7 -0.9,81.6 0.1,121.4 3.8,157.3 99,274.1 248.5,305.9 150.9,32.2 306.6,-41.2 366.3,-181.8 84.8,-199.6 65.3,-395 -79.7,-555.8 -152.8,-169.4 -352.1,-230.8 -577.9,-166.8 -205.5,58.2 -301.7,211.2 -345.5,409.1 -48.5,218.7 2.9,417.4 104.7,610.7 96.7,183.8 230.8,343.9 323.5,530.7 115.6,233.1 110.5,467.8 40.3,710.1 -64,-183.9 -109.1,-373.1 -217.1,-536 -109.4,-165.2 -223.3,-327.4 -334.8,-491.2 -23.4,-34.2 -46.8,-68.6 -67.5,-104.5 -159.1,-277.2 -278.1,-568.5 -209.8,-894.2 82.8,-395.1 360.7,-620.2 804.3,-678.7 292.9,-38.6 688.5,191.2 839.4,487.5 196.8,386.2 116.4,814 -196.5,1045.5 -245.2,181.4 -583.5,127.6 -742.5,-118.1 -114.8,-177.5 -98.1,-373.4 44.2,-493.8 z M 5551.38,6768.8 c -102.72,-355.3 -86.48,-568.7 59.01,-823.2 91.36,-159.8 192.74,-313.8 287.98,-471.4 98.12,-162.4 140.41,-338.1 123.91,-528.2 -23.72,-273 -229.98,-491.1 -491.56,-516.7 -240.25,-23.6 -488.83,151.8 -559.89,403.5 -48.67,172.5 -11.96,331.7 118.51,457.1 95.72,92 272.82,100.5 388.15,29.1 159.19,-98.6 136.6,-253.2 118.38,-419.9 84.36,74.5 126.11,156.9 130.65,257 8.54,188.3 -75.49,329.9 -233.1,425.2 -180.87,109.3 -364.16,85 -536.67,-19.7 -311.43,-188.9 -430.07,-581.4 -291.15,-947.5 162.59,-428.5 581.83,-646.9 930.37,-596.5 589.91,85.2 873.59,526.5 746.28,1109.3 -63.64,291.4 -225.45,533.3 -397.1,767.2 -187.48,255.6 -332.7,527.7 -393.77,874.7 z m 10609.92,8438.4 c 30.1,-55.1 59.8,-110.3 90.3,-165.2 223.6,-403.2 387.3,-817.2 236.3,-1289.3 -6.8,-21.2 -2.6,-45.8 -4.5,-68.7 -45.3,-552.7 198.4,-966.5 618.5,-1298.5 220,-173.9 466.9,-313.6 659.9,-522.6 42.5,-46.1 63.9,-118.6 142.6,-144 67.2,1495.3 -677.5,2571.7 -1743.1,3488.3 z m -12775.71,3.8 c -958.82,-509 -1985.62,-2585.7 -1743.39,-3492.1 70.37,69.6 137.73,137.9 206.8,204.3 206.66,198.9 460.93,337.1 673.76,528.1 407.55,365.8 604.54,810.7 524.99,1365.8 -29.61,206.6 -76.88,408.6 -12.31,626.3 78.2,263.7 191.19,506.2 350.15,767.6 z m 6376.06,-3981.3 c 33.35,11.7 32.67,37.9 40.84,58.4 312.81,783.6 871.31,1276.2 1700.21,1469.8 401.3,93.7 816.6,141.1 1196.1,317.4 116.3,54 240.3,97 357,206.7 -399.3,-78.7 -775,-107.2 -1150.7,-136 -555.1,-42.4 -1064.3,-201.7 -1497.1,-568.9 -220.3,-186.9 -407.3,-401.3 -556.7,-646.4 -64.84,-106.4 -96.9,-91.9 -157.26,0.6 -77.84,119.3 -164.52,233.8 -256.28,343 -362.2,430.7 -813.94,712.9 -1372.5,814.1 -335.93,60.9 -676.78,75.9 -1015.49,110.9 -165.44,17.1 -330.54,37.6 -495.8,56.5 153.92,-123.1 322.33,-201.7 501.6,-260.3 346.49,-113.3 711.5,-147.3 1059.87,-251.3 563.31,-168.1 1045.12,-447.5 1362.47,-967.6 107.85,-176.7 193.78,-363 283.74,-546.9 z m -5818.03,611.7 c -547.7,-138.3 -1079.19,-249.7 -1570.78,-489.9 -488.71,-238.7 -859.83,-596.2 -1093.11,-1090.5 -347.972,-737.5 -304.515,-1480.5 -24.75,-2224.8 35.33,-94 65.59,-193.8 160.26,-293.3 -14.26,183.4 9.72,333.6 24.32,484.4 49.74,513.7 172.55,1002.4 457.81,1444.4 334.07,517.6 793.53,914.9 1238.37,1326.7 279.68,259 575.29,501.7 807.88,843 z M 18141,7771.1 c 19.5,17.4 32.7,23.9 37.7,34.3 271,561.4 390.9,1153.8 297,1770.9 -131.5,864.5 -624.6,1469.4 -1410.8,1836.6 -403,188.2 -837,279.9 -1268.5,376.4 -59.3,13.3 -119.3,47.5 -197.7,2.3 76.8,-88.9 144.6,-174.9 220.2,-253.4 384,-398.7 811.9,-750.6 1212.6,-1131.4 459.9,-437 805.8,-945.6 966.7,-1566.9 89.7,-346.3 134.7,-699.7 142.8,-1068.8 z m -14101.7,1600 c -11.27,-32.2 -26.64,-63.6 -33.17,-96.7 -75.6,-383.9 -183.69,-758.6 -312.54,-1127.8 -170,-487.2 -213.64,-983.1 -114.21,-1493 67.86,-348.1 210.74,-675 272.7,-1023.9 15.47,-87.1 32.98,-173.9 54.25,-285.4 76.65,86.7 138.22,148.6 190.79,217.3 159.72,208.9 306.31,427 423.66,662.6 331.38,665.5 382.36,1324.5 -34.04,1980.9 -225.25,355.1 -393.69,736.2 -447.44,1166 z M 15622.7,5380.6 c 61.4,367.1 188,708.6 290.2,1056.7 131.4,448.1 128.5,897.7 30.5,1351.2 -75.1,347.4 -213.1,675.7 -302.2,1018.5 -44.4,170.6 -81.8,342.9 -125.8,529.1 -75.2,-91.5 -51.5,-185.3 -75.4,-267.7 -86.6,-298.9 -211.7,-579.2 -379.3,-840.7 -159,-248.1 -267.5,-514.8 -295.5,-810 -78.8,-829.6 346.9,-1448.7 857.5,-2037.1 z M 3880.33,11229.2 C 3179.07,10604.9 2592.12,9901.1 2349,8967.8 2181.79,8326 2268.28,7694.4 2457.67,7064.5 c 119.22,272.6 290.18,504 477.28,725.6 500.51,592.8 778.91,1261.2 725.43,2054.1 -31.92,473.2 57.48,933.1 219.95,1385 z m 13203.77,-4159 c 222.7,709.6 271.2,1416.3 36.9,2129.1 -201.8,614.3 -579.3,1117.8 -1000.9,1592.1 -139.2,156.6 -285.4,309.8 -459.9,440.3 -18.9,-54.2 4.6,-85.8 16.2,-119.8 134.1,-394.7 215.9,-797.2 200.5,-1217.4 -6.4,-174 4.5,-348.3 17.1,-523.1 36.1,-500.6 228.9,-935.6 519.5,-1332.6 230.8,-315.3 495.7,-606.9 670.6,-968.6 z m -4527.2,4102.7 c -7.8,-17.4 -17.7,-33.1 -22.3,-50.3 -133.1,-499.2 -380.4,-931.6 -726.3,-1317 -282.3,-314.6 -580.4,-625.2 -752.6,-1019.4 -213.1,-488.1 -485.4,-938.4 -785.2,-1377.1 -278.81,-408.1 -394.38,-873.9 -400.89,-1370.7 12.92,3.8 19.46,3.7 20.83,6.4 10.44,20.2 21.8,40.2 29.33,61.5 171.53,485.8 478.83,876.6 846.53,1228.2 350.4,335.2 757.7,600.7 1115.9,926.1 546.3,496 851.6,1090.3 774.2,1847.5 -36,352.4 -66.1,705.3 -99.5,1064.8 z m -5564.23,-24.5 c -12.23,-331.7 -75.5,-653.5 -104.9,-978.3 -53.67,-593 72.29,-1134.6 459.54,-1600.3 287.93,-346.2 645.5,-615.7 998.45,-888.7 448.39,-346.8 855.18,-729.3 1118.02,-1241.1 70.64,-137.6 126.96,-282.5 197.42,-441.1 5.68,202.2 -4.75,384 -46.02,564.2 -98.44,429.9 -305.2,807.8 -558.05,1162.8 -136.44,191.6 -290.08,375.8 -362.52,601.3 -181.47,564.8 -547.8,1007.3 -928.72,1440.7 -325.64,370.5 -604.22,766 -728.56,1252.7 -11.13,43.5 -29.6,85.2 -44.66,127.8 z M 9767.04,9105.2 c 92.37,341 159.76,650.9 276.36,947.4 217.2,552.8 555,1020.4 1009.2,1395.8 258.2,213.4 551.1,384.5 824.5,580.1 214.6,153.4 424.1,314.2 590.7,551.5 -241.1,-104.5 -456.6,-210.1 -680.6,-292.9 -949.1,-350.9 -1634.6,-964.2 -1962.22,-1941.7 -9.46,-28.2 -9.68,-71.9 -51.2,-73.9 -50.85,-2.6 -48.5,46.8 -61.25,78.5 -188.78,469.9 -420.79,908.4 -803.77,1258.2 -528.62,482.7 -1210.49,663.1 -1859.15,992.5 31.33,-44.6 38.26,-56.2 46.82,-66.4 285.76,-340.6 651.19,-583.4 1020.02,-819.5 650.41,-416.4 1117.24,-978 1388.45,-1703.1 106.62,-285.1 174.88,-580.5 262.14,-906.5 z m -4423.28,4250.9 c -15.11,-140.6 -32.43,-272.1 -57.78,-403.6 -63.68,-330.3 -273.01,-579.6 -457.44,-843.5 -137.57,-196.8 -271.35,-397.9 -327.31,-635.1 -136.5,-578.8 -63.73,-1142.5 144.02,-1692 90.28,-238.8 202.93,-467.4 380.67,-690 57.21,417.5 251.01,743.1 484.02,1050.5 119.63,157.9 240.28,315.3 351.84,478.9 340.93,499.7 419.2,1037.7 192.59,1602 -167.63,417.5 -465.25,758.5 -710.61,1132.8 z m 8859.64,-35.4 c -42.5,-4.5 -58,-27.3 -73,-49.8 -158.8,-237.6 -320.8,-473.2 -475.2,-713.7 -182.5,-284.5 -290.3,-596 -300.1,-935.8 -14.5,-499.1 212.7,-905.2 508.3,-1282 231,-294.3 459.4,-589.9 577.7,-952 30.2,-92.5 50.9,-188 81.8,-304 162.2,219.6 279.8,438.8 362.2,672.9 310.6,882.8 371.6,1738.4 -293.3,2510.5 -151.7,176.1 -254.8,382.5 -319,608.1 -41.2,145 -52.1,294.6 -69.4,445.8 z M 10153.1,4208.9 c 94,197.7 187.6,394.8 312.6,575 129.2,186 267.5,364.9 433.9,518.7 156.9,144.9 310,297.9 519.7,377.5 -43.7,-92.4 -74.8,-182.7 -98.7,-275.7 -121.6,-473.9 -112,-931.4 179,-1349.6 149.8,-215.1 357.3,-311.5 620.8,-276.9 163.2,21.4 266.3,123 328,265 61.5,141.6 40.7,281.2 -55.2,403.6 -97.4,124.2 -252.3,148.9 -366.7,63.6 -21.5,-16 -53,-29.5 -47.2,-62.1 6.6,-36.9 41.4,-31.3 67.3,-29.6 138.9,8.7 220.6,-65.1 249.5,-190.4 26.5,-115 -51.3,-190.3 -134.9,-252 -101.1,-74.5 -200.8,-47.8 -293.4,20.2 -149.2,109.7 -178.2,263.6 -140.8,431.8 45.1,202.8 160,370.2 292.3,526.1 176.5,208.1 387.3,380.8 587.6,564.3 643.3,589 1060,1283.6 1008.3,2191.6 -16.4,287.1 -57.2,571 -167.4,840.8 -8.2,-87.3 -7.3,-173.5 -8.4,-259.8 -8,-641 -144.4,-1241.5 -545.4,-1761.9 -163.6,-212.2 -343.1,-410.1 -522.8,-608 -302.9,-333.4 -562.8,-694.1 -729.9,-1116.4 -25.9,-65.5 -27.5,-142.7 -78.5,-198.2 -34.7,18.8 -40.7,46.4 -44.2,73.8 -32,248.8 -22.6,493 44.6,738 128.1,467.2 434.9,815.4 749,1159.6 336.2,368.5 605.8,777.2 763,1253.2 122.3,369.9 194,747 118.7,1139.1 -15.2,-33.5 -25.7,-68 -29.3,-103.2 -32.2,-319.1 -111.2,-624.1 -268.5,-906.2 C 12640.2,7502 12266.6,7145.4 11880.3,6801.6 11426,6397.1 10953.2,6012.2 10614.6,5495 10357.9,5102.8 10207.4,4674.2 10153.1,4208.9 Z M 7536.51,4452 c -34.24,86.5 -96.16,91 -155.76,93.1 -239.26,8.8 -396.13,-258.5 -294.6,-500 133.26,-316.9 568.34,-380.6 837.3,-115.2 356.32,351.5 391.42,795.3 334.69,1257.6 -20.62,168.1 -70.56,331.8 -120.36,497.7 581.91,-381.1 1010.63,-881.5 1269.19,-1526.4 -26.27,169.4 -54.09,337.3 -98.19,500.8 -159.84,592.5 -509.1,1066.6 -941.22,1488.2 -379.54,370.3 -806.18,689.5 -1172.75,1073.2 -480.6,503.1 -806.1,1081.7 -835.45,1803.4 -9.5,-32.4 -18.15,-58.3 -24.47,-84.7 -4.24,-17.8 -6.44,-36.2 -7.43,-54.5 -22.22,-409.7 34.41,-806.8 181.74,-1191.2 191.61,-499.9 515.68,-910.2 867.6,-1303.1 178.4,-199.1 349.9,-404.5 475.2,-642.6 190.5,-362.1 246.57,-839.4 124.8,-1155.7 -229.18,726.8 -747.11,1228.1 -1204.27,1774.3 -301.39,360.1 -526.52,763.5 -606.19,1238.9 -55.24,329.7 -54.8,659.8 -51.3,996.1 -199.5,-506.4 -279.02,-1110.6 -130.26,-1649.6 141.33,-512 427.56,-934.8 801.95,-1302.1 194.04,-190.4 398.36,-370.3 592.9,-560.1 182.16,-177.8 348.59,-368.1 422.2,-621.3 69.72,-239.9 -12.43,-439.3 -215.93,-515 -130.86,-48.6 -284.48,30.6 -329.14,169.7 -42.64,132.9 25.83,256.7 166.37,299.3 34.46,10.4 69.76,18 113.38,29.2 z m 7537.59,13413 c 199,30.4 395.8,50 585.9,103.9 283,80.2 401.7,154.3 488.5,287.5 -383.1,-106.7 -761.3,-73.6 -1141.9,35.4 367.7,98.5 758.9,141.8 1023.9,482 -373.4,-131.1 -743,-134.5 -1121.4,-93.2 346.8,173.8 724.5,294.3 949.8,665.1 -484.6,-228.8 -1055.3,-352.4 -1200,-264.4 720.2,429 829.1,520.9 882.1,751.7 -342.7,-247.1 -720.8,-392.2 -1135.1,-464.2 256.1,181.4 499.5,371 629.8,666.3 -288.6,-228.5 -607.1,-386.1 -969.9,-448.7 -28.7,-5 -66,-38.6 -83.4,4.9 -15.1,38 27.4,52.4 54,68.6 184.2,112.7 356.9,240.5 513.6,391.4 -396.8,-133.9 -784.8,-283.9 -1132.7,-563.1 464.6,-107.9 799.8,-364.5 1095.1,-703.6 -191.9,-44.7 -195.3,-46.1 -121.2,-226.8 132.5,-322.6 186.7,-654.6 125.3,-1000 -111.1,-624.8 -464.9,-1067.2 -1058.6,-1275.2 -622,-218 -1199.6,-100.4 -1688.2,360.9 -195.1,184.2 -330.5,410.3 -424.8,690.9 -39.8,-360.1 66.6,-661.6 179.3,-963.8 -237.6,152 -339.3,387.9 -422.9,671.9 -42.4,-313.9 -11.2,-580.6 126.7,-834.5 -108.9,33.8 -163.5,112.6 -211.1,193.4 -245.6,417.9 -139.2,849.4 -44.1,1281.5 -216.2,-383.1 -332.7,-786.3 -234.7,-1225.2 48,-214.7 132.4,-421.2 181.2,-635.7 107.6,-472.7 -45.5,-800.4 -531.1,-1103.6 -24.3,145.2 -7,286.6 13.3,456.6 -58.4,-95.1 -74,-171.1 -88.4,-247.5 -90.8,-480.3 -301.3,-916.8 -496.07,-1359.2 -32.13,-72.9 -61.9,-56.8 -90.1,-0.9 -189.12,375 -363.08,755.8 -458.43,1168 -34.96,151.1 -32.59,314 -128.65,447.9 18.09,-124.8 10.25,-249 9.94,-372.9 -0.16,-63.8 -21.48,-89.3 -81.25,-46.6 -298.9,213.4 -523.15,469.7 -490.02,869.6 16.08,194 73.45,378.3 141.12,559.8 209.7,562.4 107.25,1085.6 -199.53,1582.4 52.61,-151.3 88.22,-307.6 117.07,-465.2 65.23,-356.4 48.63,-698.2 -192.4,-995.4 -37.93,-46.8 -75.62,-98.2 -165.4,-105.8 159.56,243.2 181.62,492.4 143.28,753.9 -77.52,-235.2 -205.75,-432.2 -407.69,-582.9 113.81,285.7 207.03,571.3 185.01,913.4 -30.84,-62.3 -47.45,-94.7 -63.05,-127.6 -342.98,-722.7 -1055.01,-1088.9 -1843.05,-947.5 -610.52,109.5 -1145.53,657.5 -1266.33,1264.2 -79.96,401.7 -28.11,776.3 140.69,1142.4 24.69,53.5 77.7,119.5 -42.32,135.9 -73.96,10.1 -44.08,51.6 -14.03,85.8 149.89,170.5 312.89,324 514.1,435.6 147.53,81.9 304.7,140.4 468.91,199.7 -249.46,225.3 -862.53,534.5 -1100.58,558.5 167.28,-177.6 389.31,-284.4 562.76,-452.5 -405.27,43.3 -754.37,207.3 -1068.09,456.9 138.07,-288.3 359.87,-492.1 629.86,-656.3 -413.68,53.9 -784.03,211.6 -1153.95,442.4 96.24,-212.2 239.49,-339.1 396.69,-455.4 156.32,-115.7 336.38,-190.7 499.73,-298.6 -421.77,-10.4 -828.19,39.6 -1216.59,274.3 223.38,-383.9 608.32,-488.4 950.55,-663 -361.97,-70.5 -712.79,-16.3 -1084.06,63.5 277.41,-314.4 652.03,-350.8 1000.26,-451.9 -368.81,-133.1 -742.08,-122.9 -1119.76,-76.8 298.04,-283.9 686.04,-287.6 1054.47,-355.6 -370.46,-143.2 -747.01,-186.2 -1164.13,-141.7 359.82,-265.2 753.87,-243.7 1141.53,-257 -328.34,-150 -671.27,-206.7 -1049.46,-235 370.1,-195.9 739.28,-138.5 1102.34,-149.3 -299.55,-161.3 -622.03,-229.6 -949.9,-288.8 332.7,-171.5 681.01,-55.9 1024.11,-55.7 -273.06,-177.7 -580.18,-259.6 -912.29,-364.2 361.46,-131.3 681.25,-2.8 1004.96,14.9 -258.42,-189.8 -554.11,-299.5 -833.66,-442.4 319.79,-53.5 613.17,58 918.05,122.9 -170.44,-223.1 -439.02,-314.3 -641.37,-496.8 315.62,9 597.47,137.3 888.7,238.6 -146.28,-244.7 -396.18,-367.4 -627.01,-549.8 343.43,9 595.76,197.3 878,300.1 -157.31,-258.9 -370.81,-451.3 -630.37,-634.6 356.3,48.3 617.26,249.8 904.16,394.8 -114.84,-231.5 -271.21,-420.6 -474.15,-573.2 325.32,33.4 536.66,281.1 841.46,432.8 -129.73,-283 -273.22,-501.3 -531.61,-667.9 456.31,59.8 682.88,384.2 958.96,701.2 -13.83,-384.1 -186.1,-636.3 -438.27,-849.1 463.39,121 700.2,480.8 917.18,865.8 54.78,-396.7 -114.25,-696.3 -382.93,-957.5 496.82,166.4 729.83,575.2 924.76,1019.5 49.3,-40.9 36.85,-79.3 36.58,-114.7 -4.76,-607 -408.75,-1093.2 -1034.09,-1228.1 -207.56,-44.8 -421.18,-61.5 -667.91,-96.1 1071.97,-146 1743.97,318.8 2148.86,1248.6 31.5,-529.4 -213.53,-915.4 -657.68,-1225.6 592.36,152.2 895.22,549.3 1088.79,1064.3 65.8,-431 -104.11,-776.2 -407.74,-1074.4 411,143.1 641.98,447.1 795.02,833.2 68.72,-359.7 -65.49,-656.4 -333.47,-954 231.49,64.5 412.56,34.2 587.54,-46.7 257.3,-119.1 430.8,-324.5 582.49,-554.5 128.22,-194.5 219.11,-408 317.5,-650.6 104.31,293.1 217.24,545.3 385.76,766.4 268.8,352.5 580.4,622 1081,490.2 -304,343.3 -449.8,815 -309.1,1016.8 102.9,-405.4 326.9,-702 722.6,-880.1 -1.5,90 -54.6,118.7 -87.8,159.1 -195.3,236.7 -293.2,508.1 -288.3,814.8 0.5,32.7 4,87 43.4,93 55,8.3 39.4,-49.7 49.5,-80.8 146.6,-453.3 435.6,-773.2 883.5,-944.1 25.2,-9.7 51.8,-40.5 86.1,-4.4 -64.6,55.1 -129,106.9 -189.9,162.4 -268.1,244.2 -416.5,546.3 -434.6,910 -1.8,35.5 -14.8,85 27.9,97.6 47.5,13.9 52.1,-37.5 62.6,-69.4 250.8,-758 1104.4,-1364.9 2054.8,-1159.3 -282.6,28.1 -543.8,50.1 -795.3,133 -504.9,166.3 -879.1,664.8 -883.7,1187.9 -0.3,36.9 -23.3,95.4 34.6,103.5 42.6,5.9 49.2,-47.9 59.8,-81.1 34,-106.1 84.9,-204 140.3,-299.6 187.8,-324 472.4,-566.8 742.6,-626.5 -283.9,258.2 -442.5,557.1 -398.4,936.3 89,-109.2 155,-229.5 233.1,-341.2 82,-117.1 177,-225.4 293.3,-310.8 106.8,-78.4 216.7,-153.4 370.4,-185.6 -333.5,367.8 -451.1,610 -384.7,808.3 227.1,-325.5 493.5,-586.5 909.3,-680 -309.8,280.9 -455.4,478.9 -488,668.6 270.9,-168.3 502.4,-391.2 855.3,-448.5 -230.6,174.7 -410.1,353.9 -512.2,601 277.9,-166 545.1,-344.9 894.2,-401.5 -249.6,192.5 -472.1,379.3 -615.7,645.1 293.8,-111.3 552.9,-311.4 912.9,-315.9 -262.9,157.1 -490.5,312.8 -650.5,552.2 287.2,-108.1 563.9,-242.9 881.2,-237.3 -36.2,35.7 -78,60.6 -118.8,87 -139.1,90.2 -279.9,178.1 -415.6,273.1 -45.3,31.7 -130.4,68.7 -98.1,129.1 28.1,52.6 98.4,-6.7 147.4,-22.7 253.6,-82.7 511.3,-129.2 780.8,-99.9 -308.3,124 -610.8,255.6 -877.9,459.9 328.9,-49.4 651.6,-147.4 1024.7,-37.1 -339.7,111.5 -654.4,176.6 -915.2,378.9 335,-14.6 671.5,-119.9 994.3,46.4 -165.8,28.2 -326.3,67.3 -484.4,115.2 -154,46.7 -314.2,78.9 -452.4,180.3 368.5,-7.4 738.1,-56.3 1113.4,153 -399.9,-3.5 -740,85.6 -1073.2,222.6 395.9,7.1 790.6,2 1160.7,263.4 -423.2,-49.8 -802.4,-10.3 -1168.7,139.1 z M 18368.2,6080.2 c -35.1,-137.8 -66,-276.8 -106.1,-413.2 -371.9,-1265.2 -1044.9,-2340.9 -2031.6,-3218.1 -58.5,-52 -118,-103.2 -180.7,-150 -65,-48.5 -58.2,-78.7 10.7,-117.6 493.8,-278.9 966.1,-592.5 1441.7,-900.3 371.6,-240.5 748.8,-471.5 1129.7,-696.602 23.8,-14.097 48.3,-27.699 69.7,-44.898 23.4,-18.898 65.8,-33.301 47.3,-72.699 -17.9,-37.801 -55,-20.703 -85.6,-11.903 -265.2,76.301 -530.2,153.102 -795.5,228.903 -775.2,221.699 -1560.3,397.499 -2361,495.999 -214.1,26.4 -431.3,27.8 -647.2,38.5 -95.8,4.8 -144,15.7 -116.9,144.7 63.4,301.8 49.6,604.1 -83.7,891.7 -216,466.3 -744,588.6 -1139.7,256.7 -76,-63.7 -94.7,-29.1 -129,30.9 -85.1,148.8 -178.3,294.2 -323,391.6 -325.5,219.2 -755.9,147.7 -1007.6,-155 -54,-65 -74.3,-190.4 -164,-184.4 -66.8,4.5 -126.4,97.8 -191.5,148.6 -367.2,286 -817.8,238.3 -1072.3,-115.3 -161.9,-224.9 -216.5,-485.9 -235.6,-755.3 -14.7,-207.1 -9.4,-415 13.6,-621.2 7.9,-70.5 -13.5,-93.1 -77.4,-93.6 -359.6,-3 -719.19,-6.8 -1078.8,-8.9 -94.06,-0.6 -141.52,17.1 -128.69,143.1 34.65,340.2 28.33,682.7 -77.91,1013.1 -96.29,299.5 -256.52,547.8 -593.92,610.4 -301.9,56 -550.05,-64.4 -764.09,-268 -48.78,-46.4 -78.03,-86.3 -129.72,4.6 -335.05,588.9 -1054.85,512.7 -1370.76,-19.9 -18.81,-31.7 -40.76,-61.9 -56.36,-95.1 -33.62,-71.5 -67.49,-84.1 -132.75,-25.3 -421.23,379.9 -1012.27,143.3 -1165.75,-337.1 -84.18,-263.5 -121.19,-534.9 -49.76,-803 37.48,-140.7 -23.98,-150 -121.91,-152.3 -354.86,-8.5 -706.15,-46.2 -1056.82,-103.1 C 2781.97,982.5 1974.83,783.402 1177.64,541.098 1072.2,509 967.313,475 861.254,445.199 c -28.074,-7.898 -68.215,-28 -85.535,12.199 -18.328,42.704 26.582,52.403 51.754,68.004 305.837,188.899 614.487,373.399 917.977,566.098 571.91,363 1135.02,740 1717.67,1085.9 79.59,47.3 62.87,81.6 4.56,129.5 -267.79,219.8 -518.09,459.2 -745.43,719.6 -742.93,850.9 -1280.36,1809.8 -1508.79,2927 -8.87,43.4 -23.96,85.6 -42.13,149.3 -93.41,-158 -87.93,-316.3 -103.41,-466.9 -17.4,-169.3 -16.69,-340.4 -23.47,-510.8 -1.41,-35.3 18.86,-83.3 -23,-99.4 -49.618,-19 -70.372,33.4 -93.016,64.6 C 684.996,5425 502.824,5792 373.641,6183.8 198.578,6714.8 100.023,7261.4 46.9023,7818 15.8086,8143.8 -10.375,8469.4 4.08984,8795.9 c 27.24996,615 66.23436,1227.2 176.15616,1837 128.039,710.4 299.578,1404.3 568.606,2073.2 437.008,1086.6 1047.438,2059.6 1899.858,2871.8 49.85,47.5 107.83,86.3 160.82,130.7 48.91,40.9 96.18,83.8 140.18,134.4 -159.1,-67.3 -336.37,-46.4 -493.1,-114.9 -97.37,-42.5 -107.3,0.5 -96.38,86.3 38.38,301.5 191.41,543.8 386.98,764.6 23.76,26.8 59.51,43 78.11,79 -199.49,-21.9 -370.14,-94.2 -513.76,-227.9 -28.23,-26.2 -52.53,-76.7 -100.76,-55.8 -40.29,17.4 -20.17,65.4 -26.46,99.8 -70.13,384.1 73.31,694 336.4,961.2 44.88,45.6 95.47,85.5 134.06,140.8 -238.38,-42.2 -447.11,-136.1 -608.19,-327.8 -123.16,422 -89.73,1016.1 690.62,1483.6 -196.97,12.8 -354.08,-20.6 -503.4,-78 -82.63,-31.7 -100.67,-40.3 -88.22,62.4 54.9,453.3 343.32,693.2 743.52,836.4 21.38,7.7 43.04,14.6 64.25,22.7 3.19,1.2 4.64,7 11.66,18.4 -126.99,-11.2 -245.08,38.1 -370.25,13.3 -86.77,-17.2 -62.33,36.3 -38.57,81.4 103.28,196.4 265.51,327.5 464.28,416.9 78.45,35.2 159.33,65.1 237.21,126.5 -89.48,0 -179.04,-2.2 -268.41,1.1 -37.93,1.4 -91.54,-26 -110.44,23.7 -15.65,41.1 25.49,74.9 48.74,108.3 75.13,108.3 175.47,189.9 287.23,255.3 78.71,46.1 69.21,78.2 4.32,127.6 -206.81,157.5 -391.42,336.9 -525.57,562.5 -20.41,34.3 -58.91,75.2 -26.3,112.3 35.32,40.3 76.56,-1.3 110.68,-19.2 700.63,-368.7 1454.81,-598.3 2198.22,-858.2 925.95,-323.7 1857.67,-637.3 2704.91,-1148.2 739.47,-445.9 1296.46,-1041.4 1557.3,-1883.6 50.69,-163.6 74.86,-331.6 98.96,-499.5 23.43,-163.2 -2.06,-325.8 -40.41,-498.2 322.86,267.7 634.92,258.1 940.56,-5.3 -162.2,703.3 105.2,1299.5 479.2,1856.9 452.2,673.7 1116.5,1084.9 1842.1,1407.7 1074.9,478.4 2197.4,828.1 3304.7,1219 313.7,110.7 611.8,256 909.6,402.4 30.3,14.9 66.2,53.5 99,18.7 34.7,-36.8 -11.4,-65.2 -27.9,-94.8 -123.8,-221.7 -309.6,-387.8 -497.6,-551.7 -37.4,-32.6 -76.4,-63.4 -122.5,-101.6 157.9,-82.1 298.2,-170 396.8,-308.4 20.3,-28.4 58,-57.7 42.9,-96.4 -18.5,-47.9 -63.3,-17 -97.2,-19.1 -99.2,-6.1 -198.5,-13.2 -338.1,-22.6 194.5,-84.4 360.6,-135.8 497.8,-246.2 98.5,-79.3 183.8,-167.4 245,-277.9 12.8,-23.2 37.2,-47.1 21.8,-75.6 -16.4,-30.6 -46.9,-20.8 -73.4,-13.8 -116.2,30.8 -227.2,-18.1 -344.3,-24.7 124.7,-53.7 251.8,-98.5 365.5,-170.9 248.3,-158.2 391.7,-383.3 428.9,-675.6 10.4,-81.4 -0.9,-122.6 -100.4,-79.8 -148,63.8 -305.1,91.5 -489,74.6 139.6,-110.4 276.6,-192.8 394.8,-300.4 329.9,-300.6 387.9,-684.1 347.5,-1099.9 -2.6,-26.6 -2.7,-61.1 -34,-68.8 -30.5,-7.6 -47.3,22.5 -65.8,42.4 -146.9,158.3 -337.1,232.9 -564.5,289.6 138.4,-155 279.5,-277.9 378.9,-437.7 140.3,-225.6 153.6,-467.2 111.9,-719.3 -17.4,-105.6 -60.7,-48.7 -96.8,-14.8 -148.4,139.3 -324.4,219 -552.4,260.5 118,-154.5 230.4,-280 317.1,-423.8 86.8,-143.9 150.6,-294.7 158.9,-465.3 3.5,-70.7 -26,-96.3 -90.4,-66.6 -152.2,70.3 -322.1,67.3 -511.9,135.3 236.2,-220.3 455.4,-407.3 650.8,-619.2 716.4,-776.8 1232.2,-1674.7 1608.4,-2656.9 294.3,-768.4 479.1,-1564 586.8,-2378.7 61.5,-465.4 107.2,-931.6 102.6,-1401.8 -8.2,-845 -63,-1684 -324.6,-2495.6 -139.3,-432.1 -321,-844.4 -594.2,-1211.1 -26.7,-35.7 -52.1,-92.7 -103.1,-78.1 -58.2,16.6 -31.1,78.5 -31.8,121 -4.2,266.7 17.8,534.5 -37.2,798.7 -10,48 -23.5,95.3 -35.3,143 -9.3,-1 -18.6,-2 -27.9,-3"
         style="fill:#231f20;fill-opacity:1;fill-rule:nonzero;stroke:none"
         transform="matrix(0.13333333,0,0,-0.13333333,0,3300.96)" />
      <path
         id="path3"
         d="m 4784.73,21051.4 c -270.09,27.6 -521.72,110.4 -771.6,200.3 -461.2,166 -883.58,397.8 -1226.12,753.4 -366.6,380.5 -559.36,839.4 -570.88,1369.6 -2.25,103.6 17.76,206.9 85.31,325.2 147.81,-445.4 399.38,-789.2 760.99,-1051 -308.07,316.7 -497.33,693.7 -559.23,1129.2 -43.44,305.6 -20.09,607 128.38,887.5 21.56,40.8 40.19,86.8 97.25,85.2 59.8,-1.8 66.72,-52.8 84.69,-94.8 250.66,-586.8 666.18,-1042.6 1156.84,-1465.3 19.58,75.2 10.64,130.7 0.47,188 -37.75,212.7 -11.72,421.3 45.89,627.3 7.58,27.1 17.36,58.4 45.83,64.4 43.17,9.2 51.24,-32 62.3,-60.2 340.77,-871.5 1009.99,-1433 1787.6,-1890.3 433.85,-255.1 900.91,-443.6 1353.26,-661.6 836.88,-403.4 1513.73,-977.8 1933.49,-1824.1 3.84,-7.8 11.6,-13.6 28.01,-32.1 37.96,213.5 35.13,424.3 99.84,622.2 20.32,62.1 0.83,171.4 66.43,176.9 73.07,6.1 90.65,-102.2 124.89,-164.1 128.12,-231.7 183.41,-488.6 248.95,-777.2 64.45,272.7 108.5,517.6 220.96,740.6 38.42,76.1 61.12,207.1 141.42,200.4 78.7,-6.6 73.2,-140.9 96.5,-220.7 51.3,-176.5 67.6,-360.1 92.9,-544.7 44.6,0.8 49.6,37.3 62.6,63.4 414.7,834.2 1083,1395 1914.4,1782.3 559.4,260.6 1133.8,492.3 1647.2,843 629.9,430.2 1176.9,933.3 1461.3,1666.7 10.8,27.8 8.6,70.8 53.1,70.5 50,-0.3 47.7,-45.2 60.9,-78.6 89.8,-226.7 91.3,-457.9 38.9,-692.4 -5.8,-26 -21.5,-52.4 3.6,-87.3 116,57.3 206.1,149.5 295.8,238.3 366.4,362.5 684.1,760.4 874.6,1246.7 13.8,35.3 26.7,68.4 74.2,69.1 49.9,0.7 75.1,-28.6 93.6,-68.4 126.9,-272.7 192.1,-557 152.2,-858.7 -54.4,-411.8 -204.7,-782 -502.4,-1104.2 244.8,138.5 550,543.3 638.5,831.3 10.9,35.5 2,96.1 56.7,91.6 40.2,-3.4 37.3,-56.7 44.1,-92.5 93.9,-495.5 -55,-930.1 -346.3,-1321.9 -436.5,-587.2 -1058.1,-885.6 -1737.7,-1087.3 -161.9,-48.1 -325.4,-90.7 -496.4,-124.5 294.8,200.9 577.9,412.8 786.1,711.2 -517.9,-446.6 -1108.8,-736.9 -1788.4,-842.5 335.9,196.5 644,426.3 893.5,730.7 -154.7,-101.6 -311,-200.9 -463.9,-305.2 -545.4,-372 -1145.9,-625.8 -1766.1,-842.7 -731.3,-255.7 -1378.8,-643 -1857.2,-1269.4 -399.6,-523.3 -618.69,-1108.4 -558.33,-1776.6 17.74,-196.5 61.23,-389.9 123.13,-578.3 12.3,-37.4 39.8,-72.9 16.8,-136.5 -213.18,150 -431.15,136.7 -669.41,-6.3 46.11,195.4 88.58,361.5 124.22,529 122.19,574.4 -13.92,1104.7 -287,1607.9 -383.15,706 -1002.39,1141.7 -1710.95,1468.1 -225.6,103.9 -458.09,196 -693.79,274.4 -672.66,223.7 -1272.76,579.3 -1844.56,989.2 -22.06,15.9 -44.68,30.9 -74.42,37 240.33,-303.6 553.14,-520.2 876.23,-727.2 -661.14,94.7 -1226.18,394.9 -1740.99,807.2 181.07,-276.1 447.82,-453 711.8,-641.2"
         style="fill:#231f20;fill-opacity:1;fill-rule:nonzero;stroke:none"
         transform="matrix(0.13333333,0,0,-0.13333333,0,3300.96)" />
      <path
         id="path4"
         d="m 5940.4,1679.4 c 59.02,223.7 63.89,450.9 255.74,630.8 -4.85,-427.3 51.32,-812.1 246.75,-1197.3 3.73,223.9 59.31,394.7 235.94,505.8 174.06,109.5 350.22,132.4 542.4,10.6 -255.98,294.7 -585.9,179.5 -801.77,-265.3 -102.45,209.5 32.17,519.4 272.32,613 307.82,119.9 690.77,57.1 871.17,-659.8 54.89,199.2 75.13,372.9 83.7,550.2 8.66,179 6.1,357.2 -5.64,540.7 196.17,-179 272.38,-419.3 351.06,-674 111.34,146 232.05,262.2 422.97,274 202.03,12.5 349.51,-70.8 449.87,-238.4 295.45,-493.3 93.12,-1375.302 -386.07,-1694.3992 -30.16,-20.1016 -65.09,-54.3985 -99.02,-31.4024 -38.33,25.9024 -3.31,67.6016 2.2,101.9026 23.3,145.398 49.74,288.801 8.56,437.301 -87.02,313.699 -370.14,494.198 -687.17,438.198 -84.15,-14.8 -83.88,-76.902 -95.08,-131.902 -51.52,-253 -15.69,-504.597 20.73,-755.5 C 7649.57,-7.39844 7632.8,-25.6016 7500.69,28.1992 7045.84,213.598 6673.31,506.598 6376.13,897 c -42.87,56.301 -71.29,142.3 -163.56,125.9 -94.05,-16.7 -129.43,-100.502 -154.69,-179.201 -82.06,-255.597 -35.56,-490.398 126.4,-703.597 17.99,-23.704 57.74,-41.0043 37,-80.0004 -16.3,-30.7032 -46.06,-20.3008 -73.65,-14.6016 -582.14,121.398 -1096.26,551 -1208.75,1118.2 -22.6,114 -23.32,229.8 -1.93,343.8 41.58,221.6 154.07,390.6 387.77,433.4 227.67,41.7 430.5,-12.9 573.06,-214.1 10.18,-14.4 23.63,-26.5 42.62,-47.4"
         style="fill:#231f20;fill-opacity:1;fill-rule:nonzero;stroke:none"
         transform="matrix(0.13333333,0,0,-0.13333333,0,3300.96)" />
      <path
         id="path5"
         d="m 13831.6,1603.2 c 159.1,26.6 288.1,57.4 416,-10.8 128,-68.2 204.4,-173.8 256,-341.2 -2.7,209.7 -68.2,355.2 -223.9,433.7 -148.1,74.7 -291.3,23.7 -448.1,-81.7 z m -242.2,48.1 c 131.6,216.3 298.8,312.7 529.4,301.6 167.3,-8.1 292.2,-77.4 376.2,-217.8 117.3,-196.1 141.6,-409.6 77.2,-625.6 C 14396.8,520.902 13963.9,210.102 13401,45 c -25.7,-7.6016 -56.8,-25.5 -77.4,-1 -29.7,35.3008 8.8,58 27.4,80.801 142.2,175.301 186.4,375.398 153.9,595.5 -12.3,83.199 -38,161.5 -91.3,228.199 -91.6,114.7 -148.3,112.7 -232.9,-7.199 C 12905.3,551.5 12541.2,269.602 12113.7,65 c -16.6,-7.8984 -33.2,-17.0977 -50.9,-21.4023 -55.6,-13.2969 -113.9,-72.6954 -166.3,-26.0977 -47.3,42.1016 3.6,103.898 10.9,155.902 32.5,233.196 50,465.598 18,700.696 -13.5,99.5 -58.2,144.202 -160.9,148.002 -420.8,15.3 -700.1,-294.498 -645.6,-721.901 1.7,-13.699 6.9,-27.199 7.1,-40.801 1.1,-70.699 73.5,-169.4996 13.3,-202.6988 C 11058,12 10994.7,115.602 10937.9,169.398 c -237.5,225.102 -363.8,508.704 -390.4,831.202 -15.9,192.1 -14.5,386.1 37.7,576.7 68.3,249.5 211.5,402.1 431,428.1 235.3,27.8 396.2,-85.2 509.9,-305 70.6,214.5 131.6,418.9 247.8,599.1 19.9,30.9 40.4,61.7 62.8,90.9 13.7,18 32,39.2 57.1,27.3 24.8,-11.7 18,-38.1 14.8,-60.7 -46.5,-336.2 -23.9,-669.7 39.2,-1001.5 3.3,-16.9 13.8,-32.5 25.3,-58.4 40.1,186.8 90.9,357.6 196.3,505.7 150.4,211.5 462.4,281.2 707.4,161 206.3,-101.2 328.7,-392 257.6,-612.9 -4,-12.2 -12.9,-22.8 -20.9,-36.4 -153.2,452.4 -453.1,606.1 -724.4,374.5 458.9,45.1 625.1,-87 709.1,-578.4 122.2,229.2 183.2,464 207.9,704.4 13.9,134.6 61,271.7 15.9,410.2 -6.6,20.4 -10.7,49.3 22.9,53.2 32.8,3.9 48.5,-23.6 61.9,-46.8 97.6,-169.4 155.2,-352.1 182.6,-580.3"
         style="fill:#231f20;fill-opacity:1;fill-rule:nonzero;stroke:none"
         transform="matrix(0.13333333,0,0,-0.13333333,0,3300.96)" />
      <path
         id="path6"
         d="m 12917.2,22721.3 c -606.6,26.6 -1152.5,-152.4 -1646.8,-499.1 -28.6,-20.1 -57.2,-60.6 -95.8,-35.3 -34.3,22.5 -20.1,67.6 -18.9,103 13.5,390.7 357.4,778 778.4,861.5 499.3,99.1 933.7,-73.6 1340.6,-343.4 17.4,-11.4 38.6,-35 37.8,-52 -1.5,-36.2 -37.5,-34.1 -63.9,-34.3 -110.5,-1.1 -221,-0.4 -331.4,-0.4"
         style="fill:#231f20;fill-opacity:1;fill-rule:nonzero;stroke:none"
         transform="matrix(0.13333333,0,0,-0.13333333,0,3300.96)" />
      <path
         id="path7"
         d="m 6195.69,22726.8 c 403.77,390.5 1199.73,646.1 1749.8,269.3 246.61,-168.9 417.14,-386.2 434.19,-697.9 2.12,-38.8 28.78,-89.1 -19.51,-112.3 -36.05,-17.4 -66.62,19.8 -96.15,39.8 -307.22,208.5 -638.22,363.9 -1001.66,445.5 -239.23,53.7 -482.51,59.1 -726.37,55.8 -103.94,-1.4 -207.92,-0.2 -340.3,-0.2"
         style="fill:#231f20;fill-opacity:1;fill-rule:nonzero;stroke:none"
         transform="matrix(0.13333333,0,0,-0.13333333,0,3300.96)" />
      <path
         id="path8"
         d="m 9775.71,23667.4 c 142.73,0 285.49,0.7 428.19,-0.4 68.9,-0.4 113.8,-17.6 96.1,-106.4 -71.1,-357.6 -193.8,-689.1 -444.34,-965 -66.63,-73.3 -106.26,-73.8 -174.13,-2 -253.59,268.7 -376.09,595 -437.73,950.8 -12.57,72.4 4.86,113.5 90.24,111.1 147.13,-4 294.44,-1.1 441.67,-1.1 0,4.3 0,8.6 0,13"
         style="fill:#231f20;fill-opacity:1;fill-rule:nonzero;stroke:none"
         transform="matrix(0.13333333,0,0,-0.13333333,0,3300.96)" />
      <path
         id="path9"
         d="m 13187.8,22653 c 177.3,21 349,-31 518.2,-93.3 27.4,-10.1 70.6,-10.2 75.7,-49.7 5.5,-42.4 -37.8,-47.4 -63.9,-61.1 -469,-247.8 -960.3,-446.6 -1445.6,-658.8 -72.8,-31.9 -91.2,-1.2 -91,65 0.8,261.3 97.1,476.7 315.9,624.8 205.4,139 437.4,189 690.7,173.1"
         style="fill:#231f20;fill-opacity:1;fill-rule:nonzero;stroke:none"
         transform="matrix(0.13333333,0,0,-0.13333333,0,3300.96)" />
      <path
         id="path10"
         d="m 6330.11,22655.5 c 329.72,5.9 609.83,-47.5 828.22,-273.4 133.55,-138.1 203.99,-303.2 191.83,-499.8 -5.09,-82.3 -28.19,-123.4 -119.12,-82.9 -466.53,207.9 -937.87,405.3 -1392.08,640 -30.32,15.6 -80.62,19.4 -75.58,66.6 4.76,44.6 55.45,43.6 86.99,56.7 163.06,67.4 330.99,112.8 479.74,92.8"
         style="fill:#231f20;fill-opacity:1;fill-rule:nonzero;stroke:none"
         transform="matrix(0.13333333,0,0,-0.13333333,0,3300.96)" />
      <path
         id="path11"
         d="m 7691.41,23394.4 c 340.18,144.2 687.73,254.4 1059.76,178.7 222.82,-45.4 384.73,-282.6 372.63,-502.1 -8.15,-147.9 -80.01,-217.5 -230.67,-210.7 -193.16,8.6 -366.95,76.8 -526.71,184.9 -106.44,72.1 -207.39,152.1 -325.62,207 -112.05,52.1 -225.48,98.3 -349.39,142.2"
         style="fill:#231f20;fill-opacity:1;fill-rule:nonzero;stroke:none"
         transform="matrix(0.13333333,0,0,-0.13333333,0,3300.96)" />
      <path
         id="path12"
         d="m 11865.4,23399.7 c -323.2,-63.7 -564.4,-269.7 -829.7,-430.3 -116.5,-70.5 -249,-94.7 -381.9,-108.5 -165,-17.2 -248.4,64.7 -246.8,233.1 2.4,251.7 241.3,485 515.7,500.3 327.8,18.2 633.4,-79.3 942.7,-194.6"
         style="fill:#231f20;fill-opacity:1;fill-rule:nonzero;stroke:none"
         transform="matrix(0.13333333,0,0,-0.13333333,0,3300.96)" />
      <path
         id="path13"
         d="m 10897.4,21394.4 c 7.7,-402.2 -240.1,-661 -507.3,-908.1 -42.1,-39 -83.3,-44.5 -94,29.9 -18.2,127.2 -50.6,254.2 -51.7,381.5 -3.4,392.6 203.6,653.6 542.2,826.5 56,28.6 85.2,28.8 89.8,-41.8 6.2,-96 13.9,-192 21,-288"
         style="fill:#231f20;fill-opacity:1;fill-rule:nonzero;stroke:none"
         transform="matrix(0.13333333,0,0,-0.13333333,0,3300.96)" />
      <path
         id="path14"
         d="m 8662.22,21472.2 c 0,14.9 -5.45,48.4 1.15,79.2 13.2,61.8 -37.31,149.3 18.66,180.5 65.05,36.3 122.71,-42.5 178.74,-78.1 455.84,-290.1 473.13,-653.2 386.02,-1123.4 -13.81,-74.6 -53.99,-96.6 -112.89,-38.4 -265.87,263 -509.64,476.5 -471.68,980.2"
         style="fill:#231f20;fill-opacity:1;fill-rule:nonzero;stroke:none"
         transform="matrix(0.13333333,0,0,-0.13333333,0,3300.96)" />
      <path
         id="path15"
         d="m 8960.16,22658.9 c 17.4,-3.5 60.35,-5.3 97.59,-20.8 263.54,-109.6 450.72,-521.6 365.19,-792.2 -32.47,-102.6 -78.85,-147.3 -190.84,-90.4 -169.36,85.9 -340.44,166.3 -448.3,333.5 -66.78,103.5 -106.55,215.1 -92.24,339.9 16.19,141.3 114.02,231.6 268.6,230"
         style="fill:#231f20;fill-opacity:1;fill-rule:nonzero;stroke:none"
         transform="matrix(0.13333333,0,0,-0.13333333,0,3300.96)" />
      <path
         id="path16"
         d="m 10102.7,21981.1 c -1.4,314.4 200,606.4 432.6,668 156.2,41.4 287.9,-48.9 304.9,-209.4 22.7,-213.4 -72.8,-372.9 -231.1,-503.1 -96.7,-79.5 -211.5,-129.7 -316.9,-195 -87.7,-54.3 -131.9,-11.7 -155.6,62.9 -22,69.3 -27.9,143.7 -33.9,176.6"
         style="fill:#231f20;fill-opacity:1;fill-rule:nonzero;stroke:none"
         transform="matrix(0.13333333,0,0,-0.13333333,0,3300.96)" />
      <path
         id="path17"
         d="m 10036.1,21172.8 c -9.4,-254.7 -130.54,-454.4 -225.74,-662.2 -26.01,-56.8 -61.49,-36.1 -91.55,7.5 -257.53,373.4 -252.24,909.2 11.91,1256.9 33.41,44 61.94,56.9 90.85,1.3 101.79,-195.8 202.83,-392.2 214.53,-603.5"
         style="fill:#231f20;fill-opacity:1;fill-rule:nonzero;stroke:none"
         transform="matrix(0.13333333,0,0,-0.13333333,0,3300.96)" />
      <path
         id="path18"
         d="m 8363.42,21297.6 c -1.49,-129.4 -21.84,-143.5 -128.77,-74.3 -138.54,89.8 -282.86,171.8 -404.09,286.4 -103.11,97.5 -174.05,212.9 -201.35,353 -17.64,90.5 -6.01,177.8 65.36,240.7 71.32,63 158.35,42.7 235.33,11.3 237.07,-96.8 368.87,-281.4 411.83,-528.9 16.4,-94.5 14.98,-192.1 21.69,-288.2"
         style="fill:#231f20;fill-opacity:1;fill-rule:nonzero;stroke:none"
         transform="matrix(0.13333333,0,0,-0.13333333,0,3300.96)" />
      <path
         id="path19"
         d="m 11183.9,21353.5 c 12.3,302 83.4,566.1 355.6,727.9 96.6,57.4 202.9,107.2 306.9,23.7 97.7,-78.4 75.2,-187.4 50.1,-292.8 -38.4,-161.3 -140.8,-275.9 -269.9,-369.8 -85.3,-62.1 -173.3,-120.7 -262.4,-177.1 -44.9,-28.3 -90.2,-94.6 -139.9,-67.7 -53.9,29.2 -32.2,108.2 -40.4,155.8"
         style="fill:#231f20;fill-opacity:1;fill-rule:nonzero;stroke:none"
         transform="matrix(0.13333333,0,0,-0.13333333,0,3300.96)" />
      <path
         id="path20"
         d="m 7812.57,16197.7 c -380.5,-580.5 -1283.07,-931.3 -1964.22,-383.7 368.34,-1.7 702.98,-46.4 1032.25,28.5 327.07,74.5 635.95,193.2 931.97,355.2"
         style="fill:#231f20;fill-opacity:1;fill-rule:nonzero;stroke:none"
         transform="matrix(0.13333333,0,0,-0.13333333,0,3300.96)" />
      <path
         id="path21"
         d="m 11733.2,16194.7 c 598.6,-351.1 1242,-461.7 1951.6,-369.9 -598.9,-545.2 -1574.6,-242.2 -1951.6,369.9"
         style="fill:#231f20;fill-opacity:1;fill-rule:nonzero;stroke:none"
         transform="matrix(0.13333333,0,0,-0.13333333,0,3300.96)" />
      <path
         id="path22"
         d="m 14566.4,10065.5 c -282.5,373 -617.8,706.8 -722.4,1182 -99.2,450.4 21.4,865.6 210.7,1268.8 12.2,26 29,54 59.6,48.3 38.1,-7.2 37.4,-44.9 44.7,-76.9 58.7,-257.5 37.1,-508.6 -40.1,-760.3 -45.4,-148 -83.4,-297.9 -57.2,-460.7 27.9,-173.2 105,-307.4 228.2,-428.4 189.7,-186.5 314,-408.1 311.3,-684.5 -0.2,-26.3 7.6,-55.7 -34.8,-88.3"
         style="fill:#231f20;fill-opacity:1;fill-rule:nonzero;stroke:none"
         transform="matrix(0.13333333,0,0,-0.13333333,0,3300.96)" />
      <path
         id="path23"
         d="m 14412.9,12076.6 c 194,-285.2 448.2,-534.9 466.4,-931 -170.8,96.5 -279.8,223.6 -384.8,373.5 -59,-117.4 -19.9,-209 41,-289.3 52.5,-69.2 116.6,-130.9 181.8,-188.8 187.8,-166.5 213.4,-320 70.9,-573.8 -101.1,244.4 -307.3,387.6 -449.8,583.3 -122.6,168.2 -154.9,354.2 -67.3,548.1 68.3,151.4 100.4,312 141.8,478"
         style="fill:#231f20;fill-opacity:1;fill-rule:nonzero;stroke:none"
         transform="matrix(0.13333333,0,0,-0.13333333,0,3300.96)" />
      <path
         id="path24"
         d="m 5721.57,11466 c 10.04,-268.7 -137.31,-589.6 -356.61,-885.2 -115.19,-155.3 -228.98,-311.6 -343.35,-467.6 -15.78,-21.5 -27.78,-56.1 -59.31,-47.7 -44.18,11.9 -24.21,52.9 -23.98,82.3 1.98,256 79.18,489.8 275.26,654.8 282.95,238.1 296.1,530 218.58,852 -65.79,273.2 -140.89,545.5 -39.97,826.9 10.34,28.8 -0.84,71.5 39.29,80.2 49.99,11 57.82,-35.5 71.36,-67.4 124.69,-293.8 215.76,-595.6 218.73,-1028.3"
         style="fill:#231f20;fill-opacity:1;fill-rule:nonzero;stroke:none"
         transform="matrix(0.13333333,0,0,-0.13333333,0,3300.96)" />
      <path
         id="path25"
         d="m 5054.18,11546.3 c -101.62,-181.9 -236.09,-294.9 -393.68,-413.3 15.47,249.5 104.61,446.3 235.74,627.8 59.29,82.1 114.5,167.2 171.91,250.6 15,21.8 23.23,57.1 55.78,53.4 34.73,-4 34.46,-38.9 35.92,-65.7 7.17,-131.3 52.5,-252.9 105.81,-369.6 118.46,-259.2 38.05,-478 -134.84,-672.5 -128.17,-144.2 -281.3,-267.2 -356.52,-452.6 -7.03,-17.4 -16.06,-32.8 -38.74,-31.9 -25.75,1.2 -26.19,22.3 -29.98,39.2 -18.2,80.7 -36.96,161.3 -52.53,242.6 -14.96,78 5.99,141.2 69.8,196.2 83.54,72 159.24,153.2 237.39,231.3 94.52,94.5 132.55,206.1 93.94,364.5"
         style="fill:#231f20;fill-opacity:1;fill-rule:nonzero;stroke:none"
         transform="matrix(0.13333333,0,0,-0.13333333,0,3300.96)" />
      <path
         id="path26"
         d="m 7742.08,8578.5 c -513.99,391.7 -727.82,1161.6 -634.01,1768.3 400.43,-524.4 544.12,-1128.2 634.01,-1768.3"
         style="fill:#231f20;fill-opacity:1;fill-rule:nonzero;stroke:none"
         transform="matrix(0.13333333,0,0,-0.13333333,0,3300.96)" />
      <path
         id="path27"
         d="m 8519.46,7921.2 c -239,192.3 -429.11,410.7 -510.98,694.9 -88.16,305.9 -143.62,621.2 -214.72,938.5 293.75,-174.5 647.01,-970.1 725.7,-1633.4"
         style="fill:#231f20;fill-opacity:1;fill-rule:nonzero;stroke:none"
         transform="matrix(0.13333333,0,0,-0.13333333,0,3300.96)" />
      <path
         id="path28"
         d="m 11803.2,8570.7 c 99.5,629.6 207.5,1253.1 623.4,1773.7 183.8,-433.9 -171.8,-1440.3 -623.4,-1773.7"
         style="fill:#231f20;fill-opacity:1;fill-rule:nonzero;stroke:none"
         transform="matrix(0.13333333,0,0,-0.13333333,0,3300.96)" />
      <path
         id="path29"
         d="M 11729.6,9558.2 C 11627,8947.4 11590.1,8328 11022.8,7945.5 c 111.1,583.1 251.1,1157.2 706.8,1612.7"
         style="fill:#231f20;fill-opacity:1;fill-rule:nonzero;stroke:none"
         transform="matrix(0.13333333,0,0,-0.13333333,0,3300.96)" />
      <path
         id="path30"
         d="m 16428.3,9790.1 c 229.6,-220.1 389.5,-476.4 432,-791.6 12.7,-93.7 -78.6,-55.6 -123.1,-57.6 -104.7,-4.9 -144.8,-71.7 -166,-156.2 -21.8,-87.1 31.9,-139.4 101.6,-175.5 60.1,-31.2 113.9,-16.1 163.7,29.8 52.3,48.3 85.2,26 87.7,-37.8 7.3,-193.3 13,-386.8 -7.6,-579.7 -2.2,-21.2 -10.1,-50.1 -25.3,-60 -31.9,-20.8 -47,14.8 -63.8,33.4 -83.2,92.2 -170.1,181.8 -246.5,279.5 -143,183.1 -190.9,387.3 -153.7,622.1 46.4,293.7 80.9,591.3 1,893.6"
         style="fill:#231f20;fill-opacity:1;fill-rule:nonzero;stroke:none"
         transform="matrix(0.13333333,0,0,-0.13333333,0,3300.96)" />
      <path
         id="path31"
         d="m 16241.2,8833.5 c -89.2,229.6 -182.3,460 -156.8,714.7 15.1,151.8 24.7,303 24.8,455.3 0.1,33.6 -14.7,85.8 35.2,91.3 41.6,4.6 52.3,-43.5 66.2,-77.2 87.9,-213.2 108.5,-436.4 97.3,-664 -8.4,-172.3 -18.7,-344.6 -28.1,-516.9 -12.9,-1.1 -25.7,-2.2 -38.6,-3.2"
         style="fill:#231f20;fill-opacity:1;fill-rule:nonzero;stroke:none"
         transform="matrix(0.13333333,0,0,-0.13333333,0,3300.96)" />
      <path
         id="path32"
         d="m 2645,7928.1 c -47.93,241.9 -48.3,455.8 -23.18,670.7 5.9,50.5 10.98,99.3 80.99,52.9 64.77,-42.9 130.43,-102.1 204.86,-16.5 51.84,59.6 79.82,127.1 29.93,200.7 -56.97,84.1 -123.59,152.8 -239.6,99.5 -6.22,-2.8 -16.29,2.7 -33.99,6.2 54.36,328.2 182.92,617 443.77,887.4 -10.59,-115.9 -9.84,-195.8 -26.38,-271.9 -45.2,-207.8 -17.49,-414.1 18.69,-616.7 48.73,-272.8 -1.55,-511.2 -187.41,-718.3 -82.06,-91.5 -165.41,-181.8 -267.68,-294"
         style="fill:#231f20;fill-opacity:1;fill-rule:nonzero;stroke:none"
         transform="matrix(0.13333333,0,0,-0.13333333,0,3300.96)" />
      <path
         id="path33"
         d="m 3290.07,8847.3 c -39.94,22.7 -29.16,65.3 -31.78,97.6 -26.76,330.1 -64.7,661.1 36.28,986.3 13.58,43.7 33.26,85.9 53.99,126.9 7,13.8 25.03,28.4 39.71,30.5 22.06,3 29.32,-19.1 29.86,-37.6 11.66,-401.6 92.34,-809.1 -103.25,-1192.5 -3.07,-6.1 -15.57,-7.2 -24.81,-11.2"
         style="fill:#231f20;fill-opacity:1;fill-rule:nonzero;stroke:none"
         transform="matrix(0.13333333,0,0,-0.13333333,0,3300.96)" />
      <path
         id="path34"
         d="m 15556.5,5912.7 c -249.1,260 -297.4,722 -114.5,1009.7 79.8,125.5 194.4,160.3 303.6,92.3 98.9,-61.7 126.6,-207.8 62.1,-321.2 -22.5,-39.7 -45.5,-35.5 -76,-8.7 -63.8,56 -133.5,60.2 -200.8,9 -49.2,-37.4 -58.4,-93.9 -43.4,-150.5 20.5,-77.3 77.7,-111 155,-110.3 54.1,0.5 80.3,-21.1 62.7,-75.3 -47.7,-146.7 -97.6,-292.7 -148.7,-445"
         style="fill:#231f20;fill-opacity:1;fill-rule:nonzero;stroke:none"
         transform="matrix(0.13333333,0,0,-0.13333333,0,3300.96)" />
      <path
         id="path35"
         d="m 15182.6,6704.3 c -80.7,392.5 69.2,722.5 270.4,1072.1 50.3,-143.1 56,-268.1 16.1,-385.4 -76.8,-225.2 -200.1,-433.7 -247.3,-670.5 -1.3,-6.7 -22,-9.5 -39.2,-16.2"
         style="fill:#231f20;fill-opacity:1;fill-rule:nonzero;stroke:none"
         transform="matrix(0.13333333,0,0,-0.13333333,0,3300.96)" />
      <path
         id="path36"
         d="m 15013.2,7095 c -120.6,432.8 76.5,757.9 272.3,1098.7 73.9,-191.4 22,-395.7 -272.3,-1098.7"
         style="fill:#231f20;fill-opacity:1;fill-rule:nonzero;stroke:none"
         transform="matrix(0.13333333,0,0,-0.13333333,0,3300.96)" />
      <path
         id="path37"
         d="m 4003.69,5896.1 c -62.64,174.6 -113.06,316.9 -164.94,458.7 -16.6,45.4 -24.02,86.3 43.01,82.2 87.51,-5.3 143.27,29.5 157.8,116.4 9.2,55 9.56,112.8 -47.09,147.7 -76.48,47.2 -139.25,16.3 -198.18,-37.3 -8.54,-7.7 -25.25,-6.5 -45.93,-11.2 -9.68,51.1 -17.44,99.9 -28.33,147.9 -23.26,102.7 5.12,188.8 101.99,229.9 100.57,42.8 191.31,6.9 253.16,-82.7 154.24,-223.5 180.07,-465.1 96.48,-721.6 -36.92,-113.3 -89.22,-217.1 -167.97,-330"
         style="fill:#231f20;fill-opacity:1;fill-rule:nonzero;stroke:none"
         transform="matrix(0.13333333,0,0,-0.13333333,0,3300.96)" />
      <path
         id="path38"
         d="m 4525.8,7112.5 c -79.2,389.8 -358.96,686.8 -312.38,1095.8 249.46,-211.7 412.6,-763.1 312.38,-1095.8"
         style="fill:#231f20;fill-opacity:1;fill-rule:nonzero;stroke:none"
         transform="matrix(0.13333333,0,0,-0.13333333,0,3300.96)" />
      <path
         id="path39"
         d="m 4098.8,7770.3 c 184.35,-350 357.68,-664.1 249.11,-1047.2 -63.39,341.8 -389.3,615.7 -249.11,1047.2"
         style="fill:#231f20;fill-opacity:1;fill-rule:nonzero;stroke:none"
         transform="matrix(0.13333333,0,0,-0.13333333,0,3300.96)" />
      <path
         id="path40"
         d="m 18188.2,8709.9 c -34,165.2 -58.6,314.1 -95.7,459.8 -205,804.1 -688,1402.1 -1376.2,1846.8 -180.3,116.6 -358,237 -538.3,388.6 95.8,23.2 154.1,-31.3 216.6,-52.4 481.8,-162.9 921.3,-401.2 1270.2,-777.8 431.2,-465.6 678.7,-1002.6 592.2,-1656 -4.9,-36.4 -9.3,-73.4 -19.5,-108.4 -8.8,-29.7 -2.5,-65.9 -49.3,-100.6"
         style="fill:#231f20;fill-opacity:1;fill-rule:nonzero;stroke:none"
         transform="matrix(0.13333333,0,0,-0.13333333,0,3300.96)" />
      <path
         id="path41"
         d="m 1318.29,8736 c -119.69,510.9 -39.48,980.1 238.66,1417.6 416.88,655.7 1034.69,1030.4 1756.21,1261.1 6.91,2.2 16.61,-4.4 40.64,-11.4 -167.29,-149.6 -354.81,-255.2 -528.54,-378.9 -553.19,-394.1 -1027.31,-854.1 -1273.14,-1507.2 -84.5,-224.5 -141.83,-456.3 -180.1,-692.9 -4.8,-29.7 4.96,-66.6 -53.73,-88.3"
         style="fill:#231f20;fill-opacity:1;fill-rule:nonzero;stroke:none"
         transform="matrix(0.13333333,0,0,-0.13333333,0,3300.96)" />
      <path
         id="path42"
         d="m 2074.37,13195.6 c 20.05,-22.6 30.17,-28.7 31.29,-36.1 16.22,-107.4 55.5,-192.2 186.14,-161.8 97.34,22.7 138.21,145.8 93.81,265.6 -11.11,29.9 -20.65,67.4 -43.55,85 -145.12,111.2 -71.41,221.8 -5.77,335 86.18,148.5 199.93,275.9 309.5,406.4 20.13,24 43.27,56.6 79.85,38.1 30.56,-15.5 11.06,-48.7 12.1,-74.9 4.93,-123.7 13.78,-247.2 17.43,-370.9 14.24,-483.2 -182.45,-846.2 -618.05,-1068.7 -70.54,-36.1 -145.9,-139.3 -209.75,-91.6 -56.25,42 -2.97,155.7 9.64,236.4 23.18,148.3 54.03,295.4 137.36,437.5"
         style="fill:#231f20;fill-opacity:1;fill-rule:nonzero;stroke:none"
         transform="matrix(0.13333333,0,0,-0.13333333,0,3300.96)" />
      <path
         id="path43"
         d="m 17458,13218.2 c 112.7,-247.2 157.9,-471.9 165.6,-710.6 -519.3,150.3 -868.3,637.4 -836.9,1152.4 8.1,133 9.1,266.4 14.7,399.5 1.1,25.5 -9.6,59 25.4,70.6 25.4,8.5 42.8,-11.9 57.5,-28.8 145,-166.6 287.1,-334.8 381.6,-538 33.7,-72.6 12.2,-122.2 -39,-171.2 -71.8,-68.7 -93.5,-155.3 -87.5,-251.7 5.1,-83.1 45.5,-146.2 126.1,-160.1 81.2,-14 121.8,46.6 145.3,117.7 9.9,29.7 22.8,58.4 47.2,120.2"
         style="fill:#231f20;fill-opacity:1;fill-rule:nonzero;stroke:none"
         transform="matrix(0.13333333,0,0,-0.13333333,0,3300.96)" />
      <path
         id="path44"
         d="m 4132.44,13441.3 c -4.4,-147 -114.57,-275.5 -236.29,-275.6 -132.43,-0.1 -218.93,110.9 -217.18,278.9 1.66,158.9 74.96,289.8 161.96,415.5 21.21,30.6 45.31,50.6 76.42,16.2 112.57,-124.5 200.21,-262 215.09,-435"
         style="fill:#231f20;fill-opacity:1;fill-rule:nonzero;stroke:none"
         transform="matrix(0.13333333,0,0,-0.13333333,0,3300.96)" />
      <path
         id="path45"
         d="m 15415.2,13453.5 c -3,177 108.4,296.3 213.4,417.1 37,42.5 64,4.8 83.9,-27.5 67.6,-109.5 129.9,-221.6 148.9,-351.5 14,-95.8 -9.7,-182.7 -77.1,-253 -66.5,-69.4 -151.9,-93.3 -238.4,-52.2 -109.2,51.8 -130.5,156.8 -130.7,267.1"
         style="fill:#231f20;fill-opacity:1;fill-rule:nonzero;stroke:none"
         transform="matrix(0.13333333,0,0,-0.13333333,0,3300.96)" />
      <path
         id="path46"
         d="m 3703.69,3602.9 c 0.83,207.4 149.73,358.4 355.32,360.3 199.03,1.9 374.57,-170.1 373.44,-365.8 -1.13,-197.7 -185.43,-372.7 -388.7,-369.3 -197.16,3.4 -340.92,161.8 -340.06,374.8"
         style="fill:#231f20;fill-opacity:1;fill-rule:nonzero;stroke:none"
         transform="matrix(0.13333333,0,0,-0.13333333,0,3300.96)" />
      <path
         id="path47"
         d="m 15110.5,3607.6 c 1.9,199.8 164.8,362.2 360.7,359.7 209.3,-2.7 380.4,-175.4 376.4,-379.8 -3.8,-188.2 -178.8,-364.8 -364.6,-367.7 -195.7,-2.9 -374.4,183.1 -372.5,387.8"
         style="fill:#231f20;fill-opacity:1;fill-rule:nonzero;stroke:none"
         transform="matrix(0.13333333,0,0,-0.13333333,0,3300.96)" />
    </g>
  </g>
</svg>
