<svg xmlns="http://www.w3.org/2000/svg" viewBox="0 0 800 40" fill="none" preserveAspectRatio="none">
  <path d="M0 20 C50 5, 100 35, 150 20 C200 5, 250 35, 300 20 C350 5, 400 35, 450 20 C500 5, 550 35, 600 20 C650 5, 700 35, 750 20 C775 12, 790 16, 800 20" stroke="#6B2D8B" stroke-width="2" fill="none" opacity="0.2"/>
  <path d="M0 25 C50 10, 100 40, 150 25 C200 10, 250 40, 300 25 C350 10, 400 40, 450 25 C500 10, 550 40, 600 25 C650 10, 700 40, 750 25 C775 17, 790 21, 800 25" stroke="#6B2D8B" stroke-width="1" fill="none" opacity="0.1"/>
</svg>
